<?xml version="1.0" encoding="utf-8"?>
<!-- Generator: Adobe Illustrator 24.3.0, SVG Export Plug-In . SVG Version: 6.00 Build 0)  -->
<svg version="1.1" id="Layer_1" xmlns="http://www.w3.org/2000/svg" xmlns:xlink="http://www.w3.org/1999/xlink" x="0px" y="0px"
     viewBox="0 0 28.3 28.3" style="enable-background:new 0 0 28.3 28.3;" xml:space="preserve">
<style type="text/css">
    .st0{fill:#FFFFFF;}
</style>
<circle cx="14" cy="14" r="14"/>
<g>
    <path class="st0" d="M21,7.9c0.6,0.6,0.6,1.5,0,2L9.9,21c-0.6,0.6-1.5,0.6-2,0l-0.6-0.6c-0.6-0.6-0.6-1.5,0-2L18.4,7.3
        c0.6-0.6,1.5-0.6,2,0L21,7.9z"/>
</g>
<g>
    <path class="st0" d="M20.4,21c-0.6,0.6-1.5,0.6-2,0L7.3,9.9c-0.6-0.6-0.6-1.5,0-2l0.6-0.6c0.6-0.6,1.5-0.6,2,0L21,18.4
        c0.6,0.6,0.6,1.5,0,2L20.4,21z"/>
</g>
</svg>
