<?xml version="1.0" encoding="utf-8"?>
<!-- Generator: Adobe Illustrator 24.3.0, SVG Export Plug-In . SVG Version: 6.00 Build 0)  -->
<svg version="1.1" id="Layer_1" xmlns="http://www.w3.org/2000/svg" xmlns:xlink="http://www.w3.org/1999/xlink" x="0px" y="0px"
     viewBox="0 0 34 34" style="enable-background:new 0 0 34 34;" xml:space="preserve">
<style type="text/css">
    .st0{fill:#2B2A2C;}
    .st1{fill:#FFFFFF;}
</style>
<circle class="st0" cx="17" cy="17" r="14.9"/>
<g>
    <path class="st1" d="M10,25.5c0.7,0.7,1.7,0.7,2.2,0l13.3-13.3c0.7-0.7,0.7-1.7,0-2.2l-1.4-1.4c-0.7-0.7-1.7-0.7-2.2,0L8.6,21.8
        c-0.7,0.7-0.7,1.7,0,2.2L10,25.5z"/>
</g>
<g>
    <path class="st1" d="M8.4,9.9c-0.7,0.7-0.7,1.7,0,2.2l13.3,13.3c0.7,0.7,1.7,0.7,2.2,0l1.4-1.4c0.7-0.7,0.7-1.7,0-2.2L12.1,8.5
        c-0.7-0.7-1.7-0.7-2.2,0L8.4,9.9z"/>
</g>
</svg>
